<svg width="565" height="450" viewBox="0 0 565 450" fill="none" xmlns="http://www.w3.org/2000/svg">
<path d="M279.5 283.5V281.5L236 252.5H227.5V254.5L272.5 283.5H279.5Z" fill="#3D679F" stroke="#3D679F"/>
<path d="M166.5 261.5C166.5 259.9 142.167 236.833 130 225.5V205L141.5 191.5C143.333 184.5 145.9 169.9 141.5 167.5C137.1 165.1 132 169.833 130 172.5C129.2 185.7 122.667 192.667 119.5 194.5V201.5H123C124.6 210.7 121.333 214.667 119.5 215.5V228C120.833 228.167 124 228.6 126 229C128 229.4 135.833 240.833 139.5 246.5L140.5 253H150L150.5 262.5C155.833 262.833 166.5 263.1 166.5 261.5Z" fill="#3D679F" stroke="#3D679F"/>
<path d="M180 276.5H174C172.8 272.1 175.167 261.667 176.5 257L163.5 239.5C168.167 240 177.3 240.7 176.5 239.5C175.7 238.3 176.833 236 177.5 235H186V242L194.5 260H214C216.4 259.6 215 260.833 214 261.5L180 276.5Z" fill="#3D679F" stroke="#3D679F"/>
<path d="M256 39L243.5 14C242.7 8.8 246.5 9.5 248.5 10.5L253.5 16H263.5L260.5 23.5C260.5 26.8333 262 33.3 268 32.5C274 31.7 275.833 26.1667 276 23.5C274.833 23.3333 272.2 21.4 271 15C269.8 8.6 277.833 3 282 1V32.5L278 33.5C271.6 39.9 260.667 39.8333 256 39Z" fill="#3D679F" stroke="#3D679F"/>
<path d="M149.5 43C150.3 39.4 147.833 36.5 146.5 35.5C143.975 30.7 147.448 29.8333 149.5 30L150.5 32.5L155.5 33L156.5 29H165.5C165.5 30.6 167.167 32.3333 168 33H186C193.5 33 202.5 44 197.5 43C193.5 42.2 187.5 43.3333 185 44C187 45.3333 190.8 48.2 190 49C189.2 49.8 184.333 49 182 48.5C179.5 48.8333 174 49.5 172 49.5C169.5 49.5 169 52 169 52.5C169 53 158 56.5 156.5 52C155.3 48.4 151.333 44.5 149.5 43Z" fill="#3D679F" stroke="#3D679F"/>
<path d="M149 26.5C146.6 24.5 142.333 25.6667 140.5 26.5C140 27.8333 139.7 31.3 142.5 34.5C145.3 37.7 143.667 43.5 142.5 46C136 48.5 131 62 133.5 64.5C136 67 143.5 75 138 77C133.6 78.6 133.833 82.6667 134.5 84.5C139.7 86.9 140.333 97.8333 140 103C134 123.5 115.5 119 113 119C111 119 104.833 111 102 107H93C93 109 91.6667 111.833 91 113C85.8 101.4 93.8333 92.5 98.5 89.5C100.333 89.3333 104.7 89.1 107.5 89.5C110.3 89.9 114 84.3333 115.5 81.5C116.333 80.8333 118 80.5 118 84.5C118 88.5 112 93.8333 109 96C105.833 95.8333 98.8 95.6 96 96C93.2 96.4 93.5 98.5 94 99.5H105.5C107 102.833 112.2 108.5 121 104.5C129.8 100.5 131.333 93.5 131 90.5C130.333 91.8333 127.7 95.4 122.5 99C117.3 102.6 115 99.1667 114.5 97C116.5 95 121 89.9 123 85.5C125 81.1 123.5 73 122.5 69.5C126.5 67 129.5 57.5 127 61C125 63.8 119.5 67.8333 117 69.5V54C117 48 125 43.8333 129 42.5C129.833 41.6667 130.8 40 128 40C124.5 40 120 45 117.5 44.5C115 44 115.5 23.5 121 26.5C125.4 28.9 130.833 20.8333 133 16.5C137 16.3333 145 16.2 145 17C145 18 146 22.5 148 22.5C149.6 22.5 150.333 20.1667 150.5 19C155.5 18.1667 165.1 17.3 163.5 20.5C161.9 23.7 155.833 26.1667 153 27C152.667 27.6667 151.4 28.5 149 26.5Z" fill="#3D679F" stroke="#3D679F"/>
<path d="M83 154.5C83.4 152.1 81.5 152.5 80.5 153C73.5 157.5 73.5 165.5 72 165.5C70.5 165.5 71 185.5 74 189.5C76.4 192.7 75.6667 198.833 75 201.5C74.6 203.1 73.8333 202.167 73.5 201.5C73.5 199.5 72.5 195.333 72 193.5C68.4 189.9 66.8333 176.667 66.5 170.5C70.5 165.3 69.5 161.333 68.5 160C70.5 155 80 150 82 150C83.6 150 82.6667 148 82 147C80.6667 146.667 77.4 146.2 75 147C72.6 147.8 65 153.333 61.5 156C61.5 156.333 61.2 156.5 60 154.5C58.8 152.5 68.1667 146.667 73 144C75 144.167 79.8 144.4 83 144C86.2 143.6 84.3333 141.5 83 140.5C73 134.5 58.1667 145.667 52 152C36.8 168.8 46.3333 185 53 191C52.3333 185.833 51.4 174.9 53 172.5C54.6 170.1 55.6667 171.833 56 173V188.5C56 189.3 65.3333 201.833 70 208V222C70 223.5 65 228.5 62.5 229.5C60.5 230.3 59.3333 229.167 59 228.5C61.1667 226.5 65.4 222.1 65 220.5C64.6 218.9 63.1667 219.833 62.5 220.5C63.7 224.1 54.6667 226.667 50 227.5C47.6667 224 43 218.5 43 224.5C43 230.5 52 236.333 56.5 238.5C80 244.5 78.5 225 76.5 220.5C74.9 216.9 75.8333 210 76.5 207H80.5C83.6667 206.667 88.4 202.8 82 190C74 174 80 175 79 169C78.2 164.2 81.3333 161.333 83 160.5V154.5Z" fill="#3D679F" stroke="#3D679F"/>
<path d="M279.5 283.5V281.5L236 252.5H227.5V254.5L272.5 283.5H279.5Z" fill="#3D679F" stroke="#3D679F"/>
<path d="M166.5 261.5C166.5 259.9 142.167 236.833 130 225.5V205L141.5 191.5C143.333 184.5 145.9 169.9 141.5 167.5C137.1 165.1 132 169.833 130 172.5C129.2 185.7 122.667 192.667 119.5 194.5V201.5H123C124.6 210.7 121.333 214.667 119.5 215.5V228C120.833 228.167 124 228.6 126 229C128 229.4 135.833 240.833 139.5 246.5L140.5 253H150L150.5 262.5C155.833 262.833 166.5 263.1 166.5 261.5Z" fill="#3D679F" stroke="#3D679F"/>
<path d="M180 276.5H174C172.8 272.1 175.167 261.667 176.5 257L163.5 239.5C168.167 240 177.3 240.7 176.5 239.5C175.7 238.3 176.833 236 177.5 235H186V242L194.5 260H214C216.4 259.6 215 260.833 214 261.5L180 276.5Z" fill="#3D679F" stroke="#3D679F"/>
<path d="M256 39L243.5 14C242.7 8.8 246.5 9.5 248.5 10.5L253.5 16H263.5L260.5 23.5C260.5 26.8333 262 33.3 268 32.5C274 31.7 275.833 26.1667 276 23.5C274.833 23.3333 272.2 21.4 271 15C269.8 8.6 277.833 3 282 1V32.5L278 33.5C271.6 39.9 260.667 39.8333 256 39Z" fill="#3D679F" stroke="#3D679F"/>
<path d="M149.5 43C150.3 39.4 147.833 36.5 146.5 35.5C143.975 30.7 147.448 29.8333 149.5 30L150.5 32.5L155.5 33L156.5 29H165.5C165.5 30.6 167.167 32.3333 168 33H186C193.5 33 202.5 44 197.5 43C193.5 42.2 187.5 43.3333 185 44C187 45.3333 190.8 48.2 190 49C189.2 49.8 184.333 49 182 48.5C179.5 48.8333 174 49.5 172 49.5C169.5 49.5 169 52 169 52.5C169 53 158 56.5 156.5 52C155.3 48.4 151.333 44.5 149.5 43Z" fill="#3D679F" stroke="#3D679F"/>
<path d="M149 26.5C146.6 24.5 142.333 25.6667 140.5 26.5C140 27.8333 139.7 31.3 142.5 34.5C145.3 37.7 143.667 43.5 142.5 46C136 48.5 131 62 133.5 64.5C136 67 143.5 75 138 77C133.6 78.6 133.833 82.6667 134.5 84.5C139.7 86.9 140.333 97.8333 140 103C134 123.5 115.5 119 113 119C111 119 104.833 111 102 107H93C93 109 91.6667 111.833 91 113C85.8 101.4 93.8333 92.5 98.5 89.5C100.333 89.3333 104.7 89.1 107.5 89.5C110.3 89.9 114 84.3333 115.5 81.5C116.333 80.8333 118 80.5 118 84.5C118 88.5 112 93.8333 109 96C105.833 95.8333 98.8 95.6 96 96C93.2 96.4 93.5 98.5 94 99.5H105.5C107 102.833 112.2 108.5 121 104.5C129.8 100.5 131.333 93.5 131 90.5C130.333 91.8333 127.7 95.4 122.5 99C117.3 102.6 115 99.1667 114.5 97C116.5 95 121 89.9 123 85.5C125 81.1 123.5 73 122.5 69.5C126.5 67 129.5 57.5 127 61C125 63.8 119.5 67.8333 117 69.5V54C117 48 125 43.8333 129 42.5C129.833 41.6667 130.8 40 128 40C124.5 40 120 45 117.5 44.5C115 44 115.5 23.5 121 26.5C125.4 28.9 130.833 20.8333 133 16.5C137 16.3333 145 16.2 145 17C145 18 146 22.5 148 22.5C149.6 22.5 150.333 20.1667 150.5 19C155.5 18.1667 165.1 17.3 163.5 20.5C161.9 23.7 155.833 26.1667 153 27C152.667 27.6667 151.4 28.5 149 26.5Z" fill="#3D679F" stroke="#3D679F"/>
<path d="M83 154.5C83.4 152.1 81.5 152.5 80.5 153C73.5 157.5 73.5 165.5 72 165.5C70.5 165.5 71 185.5 74 189.5C76.4 192.7 75.6667 198.833 75 201.5C74.6 203.1 73.8333 202.167 73.5 201.5C73.5 199.5 72.5 195.333 72 193.5C68.4 189.9 66.8333 176.667 66.5 170.5C70.5 165.3 69.5 161.333 68.5 160C70.5 155 80 150 82 150C83.6 150 82.6667 148 82 147C80.6667 146.667 77.4 146.2 75 147C72.6 147.8 65 153.333 61.5 156C61.5 156.333 61.2 156.5 60 154.5C58.8 152.5 68.1667 146.667 73 144C75 144.167 79.8 144.4 83 144C86.2 143.6 84.3333 141.5 83 140.5C73 134.5 58.1667 145.667 52 152C36.8 168.8 46.3333 185 53 191C52.3333 185.833 51.4 174.9 53 172.5C54.6 170.1 55.6667 171.833 56 173V188.5C56 189.3 65.3333 201.833 70 208V222C70 223.5 65 228.5 62.5 229.5C60.5 230.3 59.3333 229.167 59 228.5C61.1667 226.5 65.4 222.1 65 220.5C64.6 218.9 63.1667 219.833 62.5 220.5C63.7 224.1 54.6667 226.667 50 227.5C47.6667 224 43 218.5 43 224.5C43 230.5 52 236.333 56.5 238.5C80 244.5 78.5 225 76.5 220.5C74.9 216.9 75.8333 210 76.5 207H80.5C83.6667 206.667 88.4 202.8 82 190C74 174 80 175 79 169C78.2 164.2 81.3333 161.333 83 160.5V154.5Z" fill="#3D679F" stroke="#3D679F"/>
<path d="M285.5 283.5V281.5L329 252.5H337.5V254.5L292.5 283.5H285.5Z" fill="#3D679F" stroke="#3D679F"/>
<path d="M398.5 261.5C398.5 259.9 422.833 236.833 435 225.5V205L423.5 191.5C421.667 184.5 419.1 169.9 423.5 167.5C427.9 165.1 433 169.833 435 172.5C435.8 185.7 442.333 192.667 445.5 194.5V201.5H442C440.4 210.7 443.667 214.667 445.5 215.5V228C444.167 228.167 441 228.6 439 229C437 229.4 429.167 240.833 425.5 246.5L424.5 253H415L414.5 262.5C409.167 262.833 398.5 263.1 398.5 261.5Z" fill="#3D679F" stroke="#3D679F"/>
<path d="M385 276.5H391C392.2 272.1 389.833 261.667 388.5 257L401.5 239.5C396.833 240 387.7 240.7 388.5 239.5C389.3 238.3 388.167 236 387.5 235H379V242L370.5 260H351C348.6 259.6 350 260.833 351 261.5L385 276.5Z" fill="#3D679F" stroke="#3D679F"/>
<path d="M309 39L321.5 14C322.3 8.8 318.5 9.5 316.5 10.5L311.5 16H301.5L304.5 23.5C304.5 26.8333 303 33.3 297 32.5C291 31.7 289.167 26.1667 289 23.5C290.167 23.3333 292.8 21.4 294 15C295.2 8.6 287.167 3 283 1V32.5L287 33.5C293.4 39.9 304.333 39.8333 309 39Z" fill="#3D679F" stroke="#3D679F"/>
<path d="M415.5 43C414.7 39.4 417.167 36.5 418.5 35.5C421.024 30.7 417.552 29.8333 415.5 30L414.5 32.5L409.5 33L408.5 29H399.5C399.5 30.6 397.833 32.3333 397 33H379C371.5 33 362.5 44 367.5 43C371.5 42.2 377.5 43.3333 380 44C378 45.3333 374.2 48.2 375 49C375.8 49.8 380.667 49 383 48.5C385.5 48.8333 391 49.5 393 49.5C395.5 49.5 396 52 396 52.5C396 53 407 56.5 408.5 52C409.7 48.4 413.667 44.5 415.5 43Z" fill="#3D679F" stroke="#3D679F"/>
<path d="M416 26.5C418.4 24.5 422.667 25.6667 424.5 26.5C425 27.8333 425.3 31.3 422.5 34.5C419.7 37.7 421.333 43.5 422.5 46C429 48.5 434 62 431.5 64.5C429 67 421.5 75 427 77C431.4 78.6 431.167 82.6667 430.5 84.5C425.3 86.9 424.667 97.8333 425 103C431 123.5 449.5 119 452 119C454 119 460.167 111 463 107H472C472 109 473.333 111.833 474 113C479.2 101.4 471.167 92.5 466.5 89.5C464.667 89.3333 460.3 89.1 457.5 89.5C454.7 89.9 451 84.3333 449.5 81.5C448.667 80.8333 447 80.5 447 84.5C447 88.5 453 93.8333 456 96C459.167 95.8333 466.2 95.6 469 96C471.8 96.4 471.5 98.5 471 99.5H459.5C458 102.833 452.8 108.5 444 104.5C435.2 100.5 433.667 93.5 434 90.5C434.667 91.8333 437.3 95.4 442.5 99C447.7 102.6 450 99.1667 450.5 97C448.5 95 444 89.9 442 85.5C440 81.1 441.5 73 442.5 69.5C438.5 67 435.5 57.5 438 61C440 63.8 445.5 67.8333 448 69.5V54C448 48 440 43.8333 436 42.5C435.167 41.6667 434.2 40 437 40C440.5 40 445 45 447.5 44.5C450 44 449.5 23.5 444 26.5C439.6 28.9 434.167 20.8333 432 16.5C428 16.3333 420 16.2 420 17C420 18 419 22.5 417 22.5C415.4 22.5 414.667 20.1667 414.5 19C409.5 18.1667 399.9 17.3 401.5 20.5C403.1 23.7 409.167 26.1667 412 27C412.333 27.6667 413.6 28.5 416 26.5Z" fill="#3D679F" stroke="#3D679F"/>
<path d="M482 154.5C481.6 152.1 483.5 152.5 484.5 153C491.5 157.5 491.5 165.5 493 165.5C494.5 165.5 494 185.5 491 189.5C488.6 192.7 489.333 198.833 490 201.5C490.4 203.1 491.167 202.167 491.5 201.5C491.5 199.5 492.5 195.333 493 193.5C496.6 189.9 498.167 176.667 498.5 170.5C494.5 165.3 495.5 161.333 496.5 160C494.5 155 485 150 483 150C481.4 150 482.333 148 483 147C484.333 146.667 487.6 146.2 490 147C492.4 147.8 500 153.333 503.5 156C503.5 156.333 503.8 156.5 505 154.5C506.2 152.5 496.833 146.667 492 144C490 144.167 485.2 144.4 482 144C478.8 143.6 480.667 141.5 482 140.5C492 134.5 506.833 145.667 513 152C528.2 168.8 518.667 185 512 191C512.667 185.833 513.6 174.9 512 172.5C510.4 170.1 509.333 171.833 509 173V188.5C509 189.3 499.667 201.833 495 208V222C495 223.5 500 228.5 502.5 229.5C504.5 230.3 505.667 229.167 506 228.5C503.833 226.5 499.6 222.1 500 220.5C500.4 218.9 501.833 219.833 502.5 220.5C501.3 224.1 510.333 226.667 515 227.5C517.333 224 522 218.5 522 224.5C522 230.5 513 236.333 508.5 238.5C485 244.5 486.5 225 488.5 220.5C490.1 216.9 489.167 210 488.5 207H484.5C481.333 206.667 476.6 202.8 483 190C491 174 485 175 486 169C486.8 164.2 483.667 161.333 482 160.5V154.5Z" fill="#3D679F" stroke="#3D679F"/>
<path d="M285.5 283.5V281.5L329 252.5H337.5V254.5L292.5 283.5H285.5Z" fill="#3D679F" stroke="#3D679F"/>
<path d="M398.5 261.5C398.5 259.9 422.833 236.833 435 225.5V205L423.5 191.5C421.667 184.5 419.1 169.9 423.5 167.5C427.9 165.1 433 169.833 435 172.5C435.8 185.7 442.333 192.667 445.5 194.5V201.5H442C440.4 210.7 443.667 214.667 445.5 215.5V228C444.167 228.167 441 228.6 439 229C437 229.4 429.167 240.833 425.5 246.5L424.5 253H415L414.5 262.5C409.167 262.833 398.5 263.1 398.5 261.5Z" fill="#3D679F" stroke="#3D679F"/>
<path d="M385 276.5H391C392.2 272.1 389.833 261.667 388.5 257L401.5 239.5C396.833 240 387.7 240.7 388.5 239.5C389.3 238.3 388.167 236 387.5 235H379V242L370.5 260H351C348.6 259.6 350 260.833 351 261.5L385 276.5Z" fill="#3D679F" stroke="#3D679F"/>
<path d="M309 39L321.5 14C322.3 8.8 318.5 9.5 316.5 10.5L311.5 16H301.5L304.5 23.5C304.5 26.8333 303 33.3 297 32.5C291 31.7 289.167 26.1667 289 23.5C290.167 23.3333 292.8 21.4 294 15C295.2 8.6 287.167 3 283 1V32.5L287 33.5C293.4 39.9 304.333 39.8333 309 39Z" fill="#3D679F" stroke="#3D679F"/>
<path d="M415.5 43C414.7 39.4 417.167 36.5 418.5 35.5C421.024 30.7 417.552 29.8333 415.5 30L414.5 32.5L409.5 33L408.5 29H399.5C399.5 30.6 397.833 32.3333 397 33H379C371.5 33 362.5 44 367.5 43C371.5 42.2 377.5 43.3333 380 44C378 45.3333 374.2 48.2 375 49C375.8 49.8 380.667 49 383 48.5C385.5 48.8333 391 49.5 393 49.5C395.5 49.5 396 52 396 52.5C396 53 407 56.5 408.5 52C409.7 48.4 413.667 44.5 415.5 43Z" fill="#3D679F" stroke="#3D679F"/>
<path d="M416 26.5C418.4 24.5 422.667 25.6667 424.5 26.5C425 27.8333 425.3 31.3 422.5 34.5C419.7 37.7 421.333 43.5 422.5 46C429 48.5 434 62 431.5 64.5C429 67 421.5 75 427 77C431.4 78.6 431.167 82.6667 430.5 84.5C425.3 86.9 424.667 97.8333 425 103C431 123.5 449.5 119 452 119C454 119 460.167 111 463 107H472C472 109 473.333 111.833 474 113C479.2 101.4 471.167 92.5 466.5 89.5C464.667 89.3333 460.3 89.1 457.5 89.5C454.7 89.9 451 84.3333 449.5 81.5C448.667 80.8333 447 80.5 447 84.5C447 88.5 453 93.8333 456 96C459.167 95.8333 466.2 95.6 469 96C471.8 96.4 471.5 98.5 471 99.5H459.5C458 102.833 452.8 108.5 444 104.5C435.2 100.5 433.667 93.5 434 90.5C434.667 91.8333 437.3 95.4 442.5 99C447.7 102.6 450 99.1667 450.5 97C448.5 95 444 89.9 442 85.5C440 81.1 441.5 73 442.5 69.5C438.5 67 435.5 57.5 438 61C440 63.8 445.5 67.8333 448 69.5V54C448 48 440 43.8333 436 42.5C435.167 41.6667 434.2 40 437 40C440.5 40 445 45 447.5 44.5C450 44 449.5 23.5 444 26.5C439.6 28.9 434.167 20.8333 432 16.5C428 16.3333 420 16.2 420 17C420 18 419 22.5 417 22.5C415.4 22.5 414.667 20.1667 414.5 19C409.5 18.1667 399.9 17.3 401.5 20.5C403.1 23.7 409.167 26.1667 412 27C412.333 27.6667 413.6 28.5 416 26.5Z" fill="#3D679F" stroke="#3D679F"/>
<path d="M482 154.5C481.6 152.1 483.5 152.5 484.5 153C491.5 157.5 491.5 165.5 493 165.5C494.5 165.5 494 185.5 491 189.5C488.6 192.7 489.333 198.833 490 201.5C490.4 203.1 491.167 202.167 491.5 201.5C491.5 199.5 492.5 195.333 493 193.5C496.6 189.9 498.167 176.667 498.5 170.5C494.5 165.3 495.5 161.333 496.5 160C494.5 155 485 150 483 150C481.4 150 482.333 148 483 147C484.333 146.667 487.6 146.2 490 147C492.4 147.8 500 153.333 503.5 156C503.5 156.333 503.8 156.5 505 154.5C506.2 152.5 496.833 146.667 492 144C490 144.167 485.2 144.4 482 144C478.8 143.6 480.667 141.5 482 140.5C492 134.5 506.833 145.667 513 152C528.2 168.8 518.667 185 512 191C512.667 185.833 513.6 174.9 512 172.5C510.4 170.1 509.333 171.833 509 173V188.5C509 189.3 499.667 201.833 495 208V222C495 223.5 500 228.5 502.5 229.5C504.5 230.3 505.667 229.167 506 228.5C503.833 226.5 499.6 222.1 500 220.5C500.4 218.9 501.833 219.833 502.5 220.5C501.3 224.1 510.333 226.667 515 227.5C517.333 224 522 218.5 522 224.5C522 230.5 513 236.333 508.5 238.5C485 244.5 486.5 225 488.5 220.5C490.1 216.9 489.167 210 488.5 207H484.5C481.333 206.667 476.6 202.8 483 190C491 174 485 175 486 169C486.8 164.2 483.667 161.333 482 160.5V154.5Z" fill="#3D679F" stroke="#3D679F"/>
<path d="M259 246.5H243.5L282 273.5V263.5L259 246.5Z" fill="#3D679F"/>
<path d="M90.5 266V253.5L83.5 252.5V237C84 234.333 84.2 227.4 81 221C77.8 214.6 79 211 80 210H88C92.3333 207.167 100.7 200.1 99.5 194.5C98.8333 189 95.9 176 89.5 168C88 154.5 89.5 148 97.5 142C105.5 136 122.5 132.5 138.5 121C154.5 109.5 145.5 76 142 66C141.167 64 140 59.7 142 58.5C144.5 57 146.5 55 147.5 47.5C148.3 41.5 151.5 49 153 53.5C153.167 54.8333 154.6 57.5 159 57.5C164.5 57.5 157 63 157 63.5C157 64 154 73.5 157 77.5C160 81.5 165.5 96 174.5 101C175.667 101.5 177.8 101.7 177 98.5C176 94.5 163 78.5 160 75.5C159.5 74 158.8 70 160 66C161.2 62 162.167 63.6667 162.5 65C164.5 70.5 170.6 82.5 179 86.5C181 88.8333 184.9 95 184.5 101C186.667 105.5 191.7 115 194.5 117C197.3 119 197 106.5 196.5 100C193 92.1667 185.1 76.3 181.5 75.5C177.9 74.7 200 50.5 211.5 38.5C212.333 38 214.3 37.3 215.5 38.5C217 40 247.5 53.5 282 38.5V43C270.667 48.5 241.5 56.2 215.5 43C215 42.1667 213.5 41 211.5 43C209.5 45 192.667 64.5 184.5 74C189.167 79.3333 198.8 92 200 100C201.5 110 199 130 194.5 136C190 142 201 143 200 139C199.2 135.8 203.333 123 205.5 117C205.833 114.167 206.3 106.8 205.5 100C204.5 94.3333 200.5 81.2 192.5 74L211.5 53.5C212.167 52.8333 213.9 51.9 215.5 53.5C217.5 55.5 267.5 64.5 282 49.5V59C274.667 64.1667 251.1 72 215.5 62C214.667 61.5 212.7 60.8 211.5 62C210.3 63.2 203.333 70.5 200 74C203.5 77.6667 210.7 88 211.5 100C212.3 112 211.833 116.333 211.5 117C209 122.833 204.3 135.4 205.5 139C206.333 141.5 206.5 146.5 209.5 147L215.5 151.5V184.5C215 186.167 213.3 189.6 210.5 190C207.7 190.4 206 190.167 205.5 190L202 194.5C203.167 200.333 206.5 211.8 210.5 211C226 202.833 266 198.5 282 200.5V236.5C264 237 222.5 241 200.5 253C198.667 253.167 195.3 252.4 196.5 248C208.333 242.833 234 232.4 242 232C242.667 230 234.3 229.4 195.5 243C193.833 243.333 191 243.1 193 239.5C195.5 235 236 223 246.5 222C237.167 221 212.9 221.9 190.5 233.5C188.833 233.167 185.9 231.8 187.5 229C189.1 226.2 223.833 215.833 241 211C228.167 211.833 198.9 216.1 184.5 226.5C182.5 225.333 179.2 222.5 182 220.5L185.5 217.5C186.333 216.5 187.3 213.5 184.5 209.5C181.7 205.5 180.333 198.5 180 195.5V170.5C180.167 164.833 181 153.3 183 152.5C185 151.7 186.5 152.5 186.5 152.5C185.833 156.5 184.5 165.7 184.5 170.5C184.5 175.3 184.5 189.167 184.5 195.5C185 198.167 186.6 204.7 189 209.5L190 213.5H200V209.5C194.667 202.333 185.8 181.3 193 154.5C193.667 152.833 195.5 150.5 197.5 154.5C196 162.333 193.9 178.5 197.5 180.5H205.5C207.5 179.5 210.7 172.9 207.5 154.5C203.333 150.167 190.4 141.7 172 142.5C169.333 141 164.3 136.1 165.5 128.5C163.333 131.833 161.1 139.9 169.5 145.5C165.667 150.333 152.6 160.8 131 164C129.833 164.5 127.5 166 127.5 168C126.167 173 122.2 185 117 193M243.5 246.5H259L282 263.5V273.5L243.5 246.5Z" stroke="#3D679F"/>
<path d="M90.5 253.5V266H103.5C104.3 264 102.5 258.5 101.5 256C101 253 92.5 234 90.5 231.5C88.9 229.5 88.8333 220.667 89 216.5C96.4125 215.3 110.422 201 116.5 194L117 193C122.2 185 126.167 173 127.5 168C127.5 166 129.833 164.5 131 164C152.6 160.8 165.667 150.333 169.5 145.5C161.1 139.9 163.333 131.833 165.5 128.5C164.3 136.1 169.333 141 172 142.5C190.4 141.7 203.333 150.167 207.5 154.5C210.7 172.9 207.5 179.5 205.5 180.5H197.5C193.9 178.5 196 162.333 197.5 154.5C195.5 150.5 193.667 152.833 193 154.5C185.8 181.3 194.667 202.333 200 209.5V213.5H190L189 209.5C186.6 204.7 185 198.167 184.5 195.5V170.5C184.5 165.7 185.833 156.5 186.5 152.5C186.5 152.5 185 151.7 183 152.5C181 153.3 180.167 164.833 180 170.5V195.5C180.333 198.5 181.7 205.5 184.5 209.5C187.3 213.5 186.333 216.5 185.5 217.5L182 220.5C179.2 222.5 182.5 225.333 184.5 226.5C198.9 216.1 228.167 211.833 241 211C223.833 215.833 189.1 226.2 187.5 229C185.9 231.8 188.833 233.167 190.5 233.5C212.9 221.9 237.167 221 246.5 222C236 223 195.5 235 193 239.5C191 243.1 193.833 243.333 195.5 243C234.3 229.4 242.667 230 242 232C234 232.4 208.333 242.833 196.5 248C195.3 252.4 198.667 253.167 200.5 253C222.5 241 264 237 282 236.5V200.5C266 198.5 226 202.833 210.5 211C206.5 211.8 203.167 200.333 202 194.5L205.5 190C206 190.167 207.7 190.4 210.5 190C213.3 189.6 215 186.167 215.5 184.5V151.5L209.5 147C206.5 146.5 206.333 141.5 205.5 139C204.3 135.4 209 122.833 211.5 117C211.833 116.333 212.3 112 211.5 100C210.7 88 203.5 77.6667 200 74C203.333 70.5 210.3 63.2 211.5 62C212.7 60.8 214.667 61.5 215.5 62C251.1 72 274.667 64.1667 282 59V49.5C267.5 64.5 217.5 55.5 215.5 53.5C213.9 51.9 212.167 52.8333 211.5 53.5L192.5 74C200.5 81.2 204.5 94.3333 205.5 100C206.3 106.8 205.833 114.167 205.5 117C203.333 123 199.2 135.8 200 139C201 143 190 142 194.5 136C199 130 201.5 110 200 100C198.8 92 189.167 79.3333 184.5 74C192.667 64.5 209.5 45 211.5 43C213.5 41 215 42.1667 215.5 43C241.5 56.2 270.667 48.5 282 43V38.5C247.5 53.5 217 40 215.5 38.5C214.3 37.3 212.333 38 211.5 38.5C200 50.5 177.9 74.7 181.5 75.5C185.1 76.3 193 92.1667 196.5 100C197 106.5 197.3 119 194.5 117C191.7 115 186.667 105.5 184.5 101C184.9 95 181 88.8333 179 86.5C170.6 82.5 164.5 70.5 162.5 65C162.167 63.6667 161.2 62 160 66C158.8 70 159.5 74 160 75.5C163 78.5 176 94.5 177 98.5C177.8 101.7 175.667 101.5 174.5 101C165.5 96 160 81.5 157 77.5C154 73.5 157 64 157 63.5C157 63 164.5 57.5 159 57.5C154.6 57.5 153.167 54.8333 153 53.5C151.5 49 148.3 41.5 147.5 47.5C146.5 55 144.5 57 142 58.5C140 59.7 141.167 64 142 66C145.5 76 154.5 109.5 138.5 121C122.5 132.5 105.5 136 97.5 142C89.5 148 88 154.5 89.5 168C95.9 176 98.8333 189 99.5 194.5C100.7 200.1 92.3333 207.167 88 210H80C79 211 77.8 214.6 81 221C84.2 227.4 84 234.333 83.5 237V252.5L90.5 253.5Z" fill="#3D679F"/>
<path d="M259 246.5H243.5L282 273.5V263.5L259 246.5Z" fill="#3D679F"/>
<path d="M90.5 253.5V266H103.5C104.3 264 102.5 258.5 101.5 256C101 253 92.5 234 90.5 231.5C88.9 229.5 88.8333 220.667 89 216.5C96.4125 215.3 110.422 201 116.5 194L117 193C122.2 185 126.167 173 127.5 168C127.5 166 129.833 164.5 131 164C152.6 160.8 165.667 150.333 169.5 145.5C161.1 139.9 163.333 131.833 165.5 128.5C164.3 136.1 169.333 141 172 142.5C190.4 141.7 203.333 150.167 207.5 154.5C210.7 172.9 207.5 179.5 205.5 180.5H197.5C193.9 178.5 196 162.333 197.5 154.5C195.5 150.5 193.667 152.833 193 154.5C185.8 181.3 194.667 202.333 200 209.5V213.5H190L189 209.5C186.6 204.7 185 198.167 184.5 195.5V170.5C184.5 165.7 185.833 156.5 186.5 152.5C186.5 152.5 185 151.7 183 152.5C181 153.3 180.167 164.833 180 170.5V195.5C180.333 198.5 181.7 205.5 184.5 209.5C187.3 213.5 186.333 216.5 185.5 217.5L182 220.5C179.2 222.5 182.5 225.333 184.5 226.5C198.9 216.1 228.167 211.833 241 211C223.833 215.833 189.1 226.2 187.5 229C185.9 231.8 188.833 233.167 190.5 233.5C212.9 221.9 237.167 221 246.5 222C236 223 195.5 235 193 239.5C191 243.1 193.833 243.333 195.5 243C234.3 229.4 242.667 230 242 232C234 232.4 208.333 242.833 196.5 248C195.3 252.4 198.667 253.167 200.5 253C222.5 241 264 237 282 236.5V200.5C266 198.5 226 202.833 210.5 211C206.5 211.8 203.167 200.333 202 194.5L205.5 190C206 190.167 207.7 190.4 210.5 190C213.3 189.6 215 186.167 215.5 184.5V151.5L209.5 147C206.5 146.5 206.333 141.5 205.5 139C204.3 135.4 209 122.833 211.5 117C211.833 116.333 212.3 112 211.5 100C210.7 88 203.5 77.6667 200 74C203.333 70.5 210.3 63.2 211.5 62C212.7 60.8 214.667 61.5 215.5 62C251.1 72 274.667 64.1667 282 59V49.5C267.5 64.5 217.5 55.5 215.5 53.5C213.9 51.9 212.167 52.8333 211.5 53.5L192.5 74C200.5 81.2 204.5 94.3333 205.5 100C206.3 106.8 205.833 114.167 205.5 117C203.333 123 199.2 135.8 200 139C201 143 190 142 194.5 136C199 130 201.5 110 200 100C198.8 92 189.167 79.3333 184.5 74C192.667 64.5 209.5 45 211.5 43C213.5 41 215 42.1667 215.5 43C241.5 56.2 270.667 48.5 282 43V38.5C247.5 53.5 217 40 215.5 38.5C214.3 37.3 212.333 38 211.5 38.5C200 50.5 177.9 74.7 181.5 75.5C185.1 76.3 193 92.1667 196.5 100C197 106.5 197.3 119 194.5 117C191.7 115 186.667 105.5 184.5 101C184.9 95 181 88.8333 179 86.5C170.6 82.5 164.5 70.5 162.5 65C162.167 63.6667 161.2 62 160 66C158.8 70 159.5 74 160 75.5C163 78.5 176 94.5 177 98.5C177.8 101.7 175.667 101.5 174.5 101C165.5 96 160 81.5 157 77.5C154 73.5 157 64 157 63.5C157 63 164.5 57.5 159 57.5C154.6 57.5 153.167 54.8333 153 53.5C151.5 49 148.3 41.5 147.5 47.5C146.5 55 144.5 57 142 58.5C140 59.7 141.167 64 142 66C145.5 76 154.5 109.5 138.5 121C122.5 132.5 105.5 136 97.5 142C89.5 148 88 154.5 89.5 168C95.9 176 98.8333 189 99.5 194.5C100.7 200.1 92.3333 207.167 88 210H80C79 211 77.8 214.6 81 221C84.2 227.4 84 234.333 83.5 237V252.5L90.5 253.5Z" stroke="#3D679F"/>
<path d="M259 246.5H243.5L282 273.5V263.5L259 246.5Z" stroke="#3D679F"/>
<path d="M306 246.5H321.5L283 273.5V263.5L306 246.5Z" fill="#3D679F"/>
<path d="M474.5 266V253.5L481.5 252.5V237C481 234.333 480.8 227.4 484 221C487.2 214.6 486 211 485 210H477C472.667 207.167 464.3 200.1 465.5 194.5C466.167 189 469.1 176 475.5 168C477 154.5 475.5 148 467.5 142C459.5 136 442.5 132.5 426.5 121C410.5 109.5 419.5 76 423 66C423.833 64 425 59.7 423 58.5C420.5 57 418.5 55 417.5 47.5C416.7 41.5 413.5 49 412 53.5C411.833 54.8333 410.4 57.5 406 57.5C400.5 57.5 408 63 408 63.5C408 64 411 73.5 408 77.5C405 81.5 399.5 96 390.5 101C389.333 101.5 387.2 101.7 388 98.5C389 94.5 402 78.5 405 75.5C405.5 74 406.2 70 405 66C403.8 62 402.833 63.6667 402.5 65C400.5 70.5 394.4 82.5 386 86.5C384 88.8333 380.1 95 380.5 101C378.333 105.5 373.3 115 370.5 117C367.7 119 368 106.5 368.5 100C372 92.1667 379.9 76.3 383.5 75.5C387.1 74.7 365 50.5 353.5 38.5C352.667 38 350.7 37.3 349.5 38.5C348 40 317.5 53.5 283 38.5V43C294.333 48.5 323.5 56.2 349.5 43C350 42.1667 351.5 41 353.5 43C355.5 45 372.333 64.5 380.5 74C375.833 79.3333 366.2 92 365 100C363.5 110 366 130 370.5 136C375 142 364 143 365 139C365.8 135.8 361.667 123 359.5 117C359.167 114.167 358.7 106.8 359.5 100C360.5 94.3333 364.5 81.2 372.5 74L353.5 53.5C352.833 52.8333 351.1 51.9 349.5 53.5C347.5 55.5 297.5 64.5 283 49.5V59C290.333 64.1667 313.9 72 349.5 62C350.333 61.5 352.3 60.8 353.5 62C354.7 63.2 361.667 70.5 365 74C361.5 77.6667 354.3 88 353.5 100C352.7 112 353.167 116.333 353.5 117C356 122.833 360.7 135.4 359.5 139C358.667 141.5 358.5 146.5 355.5 147L349.5 151.5V184.5C350 186.167 351.7 189.6 354.5 190C357.3 190.4 359 190.167 359.5 190L363 194.5C361.833 200.333 358.5 211.8 354.5 211C339 202.833 299 198.5 283 200.5V236.5C301 237 342.5 241 364.5 253C366.333 253.167 369.7 252.4 368.5 248C356.667 242.833 331 232.4 323 232C322.333 230 330.7 229.4 369.5 243C371.167 243.333 374 243.1 372 239.5C369.5 235 329 223 318.5 222C327.833 221 352.1 221.9 374.5 233.5C376.167 233.167 379.1 231.8 377.5 229C375.9 226.2 341.167 215.833 324 211C336.833 211.833 366.1 216.1 380.5 226.5C382.5 225.333 385.8 222.5 383 220.5L379.5 217.5C378.667 216.5 377.7 213.5 380.5 209.5C383.3 205.5 384.667 198.5 385 195.5V170.5C384.833 164.833 384 153.3 382 152.5C380 151.7 378.5 152.5 378.5 152.5C379.167 156.5 380.5 165.7 380.5 170.5C380.5 175.3 380.5 189.167 380.5 195.5C380 198.167 378.4 204.7 376 209.5L375 213.5H365V209.5C370.333 202.333 379.2 181.3 372 154.5C371.333 152.833 369.5 150.5 367.5 154.5C369 162.333 371.1 178.5 367.5 180.5H359.5C357.5 179.5 354.3 172.9 357.5 154.5C361.667 150.167 374.6 141.7 393 142.5C395.667 141 400.7 136.1 399.5 128.5C401.667 131.833 403.9 139.9 395.5 145.5C399.333 150.333 412.4 160.8 434 164C435.167 164.5 437.5 166 437.5 168C438.833 173 442.8 185 448 193M321.5 246.5H306L283 263.5V273.5L321.5 246.5Z" stroke="#3D679F"/>
<path d="M474.5 253.5V266H461.5C460.7 264 462.5 258.5 463.5 256C464 253 472.5 234 474.5 231.5C476.1 229.5 476.167 220.667 476 216.5C468.587 215.3 454.578 201 448.5 194L448 193C442.8 185 438.833 173 437.5 168C437.5 166 435.167 164.5 434 164C412.4 160.8 399.333 150.333 395.5 145.5C403.9 139.9 401.667 131.833 399.5 128.5C400.7 136.1 395.667 141 393 142.5C374.6 141.7 361.667 150.167 357.5 154.5C354.3 172.9 357.5 179.5 359.5 180.5H367.5C371.1 178.5 369 162.333 367.5 154.5C369.5 150.5 371.333 152.833 372 154.5C379.2 181.3 370.333 202.333 365 209.5V213.5H375L376 209.5C378.4 204.7 380 198.167 380.5 195.5V170.5C380.5 165.7 379.167 156.5 378.5 152.5C378.5 152.5 380 151.7 382 152.5C384 153.3 384.833 164.833 385 170.5V195.5C384.667 198.5 383.3 205.5 380.5 209.5C377.7 213.5 378.667 216.5 379.5 217.5L383 220.5C385.8 222.5 382.5 225.333 380.5 226.5C366.1 216.1 336.833 211.833 324 211C341.167 215.833 375.9 226.2 377.5 229C379.1 231.8 376.167 233.167 374.5 233.5C352.1 221.9 327.833 221 318.5 222C329 223 369.5 235 372 239.5C374 243.1 371.167 243.333 369.5 243C330.7 229.4 322.333 230 323 232C331 232.4 356.667 242.833 368.5 248C369.7 252.4 366.333 253.167 364.5 253C342.5 241 301 237 283 236.5V200.5C299 198.5 339 202.833 354.5 211C358.5 211.8 361.833 200.333 363 194.5L359.5 190C359 190.167 357.3 190.4 354.5 190C351.7 189.6 350 186.167 349.5 184.5V151.5L355.5 147C358.5 146.5 358.667 141.5 359.5 139C360.7 135.4 356 122.833 353.5 117C353.167 116.333 352.7 112 353.5 100C354.3 88 361.5 77.6667 365 74C361.667 70.5 354.7 63.2 353.5 62C352.3 60.8 350.333 61.5 349.5 62C313.9 72 290.333 64.1667 283 59V49.5C297.5 64.5 347.5 55.5 349.5 53.5C351.1 51.9 352.833 52.8333 353.5 53.5L372.5 74C364.5 81.2 360.5 94.3333 359.5 100C358.7 106.8 359.167 114.167 359.5 117C361.667 123 365.8 135.8 365 139C364 143 375 142 370.5 136C366 130 363.5 110 365 100C366.2 92 375.833 79.3333 380.5 74C372.333 64.5 355.5 45 353.5 43C351.5 41 350 42.1667 349.5 43C323.5 56.2 294.333 48.5 283 43V38.5C317.5 53.5 348 40 349.5 38.5C350.7 37.3 352.667 38 353.5 38.5C365 50.5 387.1 74.7 383.5 75.5C379.9 76.3 372 92.1667 368.5 100C368 106.5 367.7 119 370.5 117C373.3 115 378.333 105.5 380.5 101C380.1 95 384 88.8333 386 86.5C394.4 82.5 400.5 70.5 402.5 65C402.833 63.6667 403.8 62 405 66C406.2 70 405.5 74 405 75.5C402 78.5 389 94.5 388 98.5C387.2 101.7 389.333 101.5 390.5 101C399.5 96 405 81.5 408 77.5C411 73.5 408 64 408 63.5C408 63 400.5 57.5 406 57.5C410.4 57.5 411.833 54.8333 412 53.5C413.5 49 416.7 41.5 417.5 47.5C418.5 55 420.5 57 423 58.5C425 59.7 423.833 64 423 66C419.5 76 410.5 109.5 426.5 121C442.5 132.5 459.5 136 467.5 142C475.5 148 477 154.5 475.5 168C469.1 176 466.167 189 465.5 194.5C464.3 200.1 472.667 207.167 477 210H485C486 211 487.2 214.6 484 221C480.8 227.4 481 234.333 481.5 237V252.5L474.5 253.5Z" fill="#3D679F"/>
<path d="M306 246.5H321.5L283 273.5V263.5L306 246.5Z" fill="#3D679F"/>
<path d="M474.5 253.5V266H461.5C460.7 264 462.5 258.5 463.5 256C464 253 472.5 234 474.5 231.5C476.1 229.5 476.167 220.667 476 216.5C468.587 215.3 454.578 201 448.5 194L448 193C442.8 185 438.833 173 437.5 168C437.5 166 435.167 164.5 434 164C412.4 160.8 399.333 150.333 395.5 145.5C403.9 139.9 401.667 131.833 399.5 128.5C400.7 136.1 395.667 141 393 142.5C374.6 141.7 361.667 150.167 357.5 154.5C354.3 172.9 357.5 179.5 359.5 180.5H367.5C371.1 178.5 369 162.333 367.5 154.5C369.5 150.5 371.333 152.833 372 154.5C379.2 181.3 370.333 202.333 365 209.5V213.5H375L376 209.5C378.4 204.7 380 198.167 380.5 195.5V170.5C380.5 165.7 379.167 156.5 378.5 152.5C378.5 152.5 380 151.7 382 152.5C384 153.3 384.833 164.833 385 170.5V195.5C384.667 198.5 383.3 205.5 380.5 209.5C377.7 213.5 378.667 216.5 379.5 217.5L383 220.5C385.8 222.5 382.5 225.333 380.5 226.5C366.1 216.1 336.833 211.833 324 211C341.167 215.833 375.9 226.2 377.5 229C379.1 231.8 376.167 233.167 374.5 233.5C352.1 221.9 327.833 221 318.5 222C329 223 369.5 235 372 239.5C374 243.1 371.167 243.333 369.5 243C330.7 229.4 322.333 230 323 232C331 232.4 356.667 242.833 368.5 248C369.7 252.4 366.333 253.167 364.5 253C342.5 241 301 237 283 236.5V200.5C299 198.5 339 202.833 354.5 211C358.5 211.8 361.833 200.333 363 194.5L359.5 190C359 190.167 357.3 190.4 354.5 190C351.7 189.6 350 186.167 349.5 184.5V151.5L355.5 147C358.5 146.5 358.667 141.5 359.5 139C360.7 135.4 356 122.833 353.5 117C353.167 116.333 352.7 112 353.5 100C354.3 88 361.5 77.6667 365 74C361.667 70.5 354.7 63.2 353.5 62C352.3 60.8 350.333 61.5 349.5 62C313.9 72 290.333 64.1667 283 59V49.5C297.5 64.5 347.5 55.5 349.5 53.5C351.1 51.9 352.833 52.8333 353.5 53.5L372.5 74C364.5 81.2 360.5 94.3333 359.5 100C358.7 106.8 359.167 114.167 359.5 117C361.667 123 365.8 135.8 365 139C364 143 375 142 370.5 136C366 130 363.5 110 365 100C366.2 92 375.833 79.3333 380.5 74C372.333 64.5 355.5 45 353.5 43C351.5 41 350 42.1667 349.5 43C323.5 56.2 294.333 48.5 283 43V38.5C317.5 53.5 348 40 349.5 38.5C350.7 37.3 352.667 38 353.5 38.5C365 50.5 387.1 74.7 383.5 75.5C379.9 76.3 372 92.1667 368.5 100C368 106.5 367.7 119 370.5 117C373.3 115 378.333 105.5 380.5 101C380.1 95 384 88.8333 386 86.5C394.4 82.5 400.5 70.5 402.5 65C402.833 63.6667 403.8 62 405 66C406.2 70 405.5 74 405 75.5C402 78.5 389 94.5 388 98.5C387.2 101.7 389.333 101.5 390.5 101C399.5 96 405 81.5 408 77.5C411 73.5 408 64 408 63.5C408 63 400.5 57.5 406 57.5C410.4 57.5 411.833 54.8333 412 53.5C413.5 49 416.7 41.5 417.5 47.5C418.5 55 420.5 57 423 58.5C425 59.7 423.833 64 423 66C419.5 76 410.5 109.5 426.5 121C442.5 132.5 459.5 136 467.5 142C475.5 148 477 154.5 475.5 168C469.1 176 466.167 189 465.5 194.5C464.3 200.1 472.667 207.167 477 210H485C486 211 487.2 214.6 484 221C480.8 227.4 481 234.333 481.5 237V252.5L474.5 253.5Z" stroke="#3D679F"/>
<path d="M306 246.5H321.5L283 273.5V263.5L306 246.5Z" stroke="#3D679F"/>
<path d="M253.5 164.5V96C253.5 93.2 251.833 92.5 251 92.5H243V83H319.5V112H315C315.8 100.4 309 94.1667 305.5 92.5H280.5V126.5C298.5 132 297.5 113.5 299.5 111C301.1 109 302.5 110.167 303 111C303.167 123 303.4 147.7 303 150.5C302.6 153.3 301.167 151.667 300.5 150.5C295.7 131.3 285.167 132.167 280.5 135V164.5C282.5 168.1 286.667 168.667 288.5 168.5V176.5H270.5C268.5 170.9 266 174.167 265 176.5H247V168.5C251 168.1 253 165.667 253.5 164.5Z" fill="#3D679F" stroke="#3D679F"/>
<path d="M266 155.5C266.5 157.5 268.984 157 269 155.5C269.124 144 269.333 120.167 269 104.5C268.667 103.833 266.5 103.5 266 104.5L266 155.5Z" fill="#D9D9D9"/>
<path d="M266 155.5C266.5 157.5 268.984 157 269 155.5C269.124 144 269.333 120.167 269 104.5C268.667 103.833 266.5 103.5 266 104.5M266 155.5C266 141 266 120 266 104.5M266 155.5L266 104.5" stroke="#3D679F"/>
<path d="M10.8778 436.5V432.078C14.2725 431.899 16.5951 431.14 17.8458 429.8C19.0965 428.371 19.7665 426.45 19.8558 424.038C20.0345 421.537 20.1238 418.723 20.1238 415.596V357.708C20.1238 355.921 20.1685 354.224 20.2578 352.616C20.3471 350.919 20.4365 349.4 20.5258 348.06C18.9178 348.149 17.3098 348.239 15.7018 348.328C14.0938 348.417 12.4858 348.507 10.8778 348.596V342.7H73.0538L73.7238 366.15H69.3018C69.3018 360.879 68.4531 356.904 66.7558 354.224C65.0585 351.455 62.8251 349.623 60.0558 348.73C57.2865 347.747 54.2045 347.301 50.8098 347.39L41.0278 347.658C37.7225 347.747 35.4445 348.551 34.1938 350.07C32.9431 351.499 32.2285 353.42 32.0498 355.832C31.8711 358.244 31.7818 361.013 31.7818 364.14V387.188L55.0978 387.322L54.1598 375.664H60.0558V403.938H55.7678C55.7678 399.918 55.1871 397.059 54.0258 395.362C52.9538 393.665 51.2565 392.637 48.9338 392.28C46.6111 391.923 43.5738 391.833 39.8218 392.012L31.7818 392.414V420.554C31.7818 422.966 31.7371 425.065 31.6478 426.852C31.6478 428.549 31.5585 429.979 31.3798 431.14C32.8985 431.051 34.4171 431.006 35.9358 431.006C37.4545 430.917 38.9731 430.827 40.4918 430.738C42.0105 430.649 43.5291 430.604 45.0478 430.604V436.5H10.8778ZM113.281 438.644C107.117 438.644 101.534 437.215 96.531 434.356C91.6177 431.408 87.7317 427.299 84.873 422.028C82.0144 416.668 80.585 410.37 80.585 403.134C80.585 396.881 81.9697 391.029 84.739 385.58C87.5977 380.131 91.573 375.753 96.665 372.448C101.757 369.053 107.653 367.356 114.353 367.356C118.105 367.356 121.589 367.981 124.805 369.232C128.11 370.393 131.014 372.225 133.515 374.726C136.016 377.138 137.982 380.22 139.411 383.972C140.84 387.635 141.555 391.967 141.555 396.97L94.387 397.774C94.387 404.563 95.1017 410.549 96.531 415.73C98.0497 420.822 100.462 424.797 103.767 427.656C107.072 430.425 111.316 431.81 116.497 431.81C119.266 431.81 122.08 431.319 124.939 430.336C127.887 429.353 130.612 428.013 133.113 426.316C135.614 424.619 137.624 422.743 139.143 420.688L142.359 423.368C139.947 427.12 137.044 430.113 133.649 432.346C130.254 434.579 126.77 436.187 123.197 437.17C119.624 438.153 116.318 438.644 113.281 438.644ZM94.789 392.146H128.959C128.959 388.93 128.468 385.848 127.485 382.9C126.592 379.863 125.073 377.406 122.929 375.53C120.785 373.565 117.971 372.582 114.487 372.582C109.306 372.582 104.973 374.145 101.489 377.272C98.0944 380.309 95.861 385.267 94.789 392.146ZM180.95 438.644C176.483 438.644 172.508 438.019 169.024 436.768C165.54 435.607 162.681 434.267 160.448 432.748L160.984 437.438H155.356L154.552 414.39H158.706C158.885 418.053 159.912 421.358 161.788 424.306C163.664 427.165 166.076 429.398 169.024 431.006C171.972 432.614 175.143 433.418 178.538 433.418C180.861 433.418 183.139 433.061 185.372 432.346C187.605 431.542 189.481 430.381 191 428.862C192.519 427.254 193.278 425.244 193.278 422.832C193.278 420.331 192.519 418.276 191 416.668C189.571 414.971 187.65 413.497 185.238 412.246C182.826 410.995 180.235 409.834 177.466 408.762C174.786 407.69 172.106 406.573 169.426 405.412C166.746 404.251 164.245 402.866 161.922 401.258C159.689 399.65 157.902 397.685 156.562 395.362C155.222 393.039 154.552 390.181 154.552 386.786C154.552 384.91 154.909 382.855 155.624 380.622C156.339 378.389 157.545 376.289 159.242 374.324C160.939 372.269 163.262 370.617 166.21 369.366C169.158 368.026 172.91 367.356 177.466 367.356C179.878 367.356 182.558 367.758 185.506 368.562C188.454 369.366 191.313 370.885 194.082 373.118L193.814 368.026H199.442V391.476H195.154C194.975 388.349 194.261 385.357 193.01 382.498C191.759 379.55 189.928 377.138 187.516 375.262C185.104 373.297 181.977 372.314 178.136 372.314C174.027 372.314 170.811 373.341 168.488 375.396C166.165 377.451 165.004 379.818 165.004 382.498C165.004 385.267 165.853 387.59 167.55 389.466C169.337 391.253 171.615 392.816 174.384 394.156C177.153 395.496 180.101 396.791 183.228 398.042C186.623 399.471 189.928 401.035 193.144 402.732C196.36 404.429 198.995 406.573 201.05 409.164C203.105 411.665 204.132 414.926 204.132 418.946C204.132 423.413 202.971 427.12 200.648 430.068C198.415 433.016 195.511 435.16 191.938 436.5C188.454 437.929 184.791 438.644 180.95 438.644ZM285.758 370.974C285.669 365.703 285.133 361.326 284.15 357.842C283.167 354.358 281.425 351.767 278.924 350.07C276.512 348.283 272.983 347.435 268.338 347.524H256.948L256.814 420.554C256.814 422.966 256.769 425.065 256.68 426.852C256.68 428.549 256.591 429.979 256.412 431.14C258.288 431.051 260.119 430.961 261.906 430.872C263.782 430.783 265.658 430.693 267.534 430.604V436.5H236.044V432.078C239.439 431.899 241.717 431.095 242.878 429.666C244.129 428.237 244.799 426.316 244.888 423.904C245.067 421.403 245.156 418.633 245.156 415.596L245.29 347.658L231.488 347.792C225.86 347.792 221.885 349.668 219.562 353.42C217.239 357.172 216.078 363.023 216.078 370.974H211.12L211.924 342.7H290.046L290.85 370.974H285.758ZM297.818 432.48C300.587 432.48 302.508 431.81 303.58 430.47C304.652 429.041 305.277 427.12 305.456 424.708C305.635 422.207 305.724 419.348 305.724 416.132V385.58C305.724 384.151 305.724 382.721 305.724 381.292C305.813 379.863 305.992 378.389 306.26 376.87C304.652 376.959 303.044 377.049 301.436 377.138C299.917 377.138 298.354 377.183 296.746 377.272V371.778H300.9C304.741 371.778 307.377 371.421 308.806 370.706C310.325 369.902 311.575 369.053 312.558 368.16H316.444C316.623 369.589 316.757 371.376 316.846 373.52C316.935 375.575 317.025 378.21 317.114 381.426C318.454 379.193 320.285 377.004 322.608 374.86C324.931 372.716 327.521 370.929 330.38 369.5C333.328 368.071 336.41 367.356 339.626 367.356C342.127 367.356 344.316 368.026 346.192 369.366C348.068 370.706 349.006 372.85 349.006 375.798C349.006 376.513 348.783 377.406 348.336 378.478C347.889 379.461 347.175 380.354 346.192 381.158C345.209 381.873 343.914 382.23 342.306 382.23C340.341 382.141 338.777 381.381 337.616 379.952C336.455 378.433 336.008 376.691 336.276 374.726C334.043 374.637 331.72 375.217 329.308 376.468C326.985 377.719 324.797 379.461 322.742 381.694C320.687 383.838 318.856 386.384 317.248 389.332L317.382 422.296C317.382 424.083 317.337 425.691 317.248 427.12C317.248 428.46 317.114 429.889 316.846 431.408C318.275 431.319 319.66 431.274 321 431.274C322.429 431.185 323.859 431.095 325.288 431.006V436.5H297.818V432.48ZM395.609 436.5C395.341 434.981 395.162 433.641 395.073 432.48C394.983 431.319 394.849 430.113 394.671 428.862C391.633 431.899 388.328 434.311 384.755 436.098C381.271 437.795 377.563 438.644 373.633 438.644C366.843 438.644 361.796 437.125 358.491 434.088C355.185 430.961 353.533 427.165 353.533 422.698C353.533 418.589 354.783 415.06 357.285 412.112C359.875 409.075 363.181 406.618 367.201 404.742C371.31 402.777 375.732 401.347 380.467 400.454C385.291 399.471 389.936 399.025 394.403 399.114V390.806C394.403 387.679 394.135 384.731 393.599 381.962C393.063 379.193 391.901 376.915 390.115 375.128C388.328 373.341 385.469 372.403 381.539 372.314C378.948 372.225 376.268 372.716 373.499 373.788C370.819 374.86 368.853 376.691 367.603 379.282C368.317 379.997 368.764 380.845 368.943 381.828C369.211 382.721 369.345 383.57 369.345 384.374C369.345 385.446 368.898 386.697 368.005 388.126C367.111 389.466 365.548 390.091 363.315 390.002C361.439 390.002 360.009 389.377 359.027 388.126C358.044 386.786 357.553 385.223 357.553 383.436C357.553 380.399 358.669 377.674 360.903 375.262C363.225 372.85 366.397 370.929 370.417 369.5C374.437 368.071 378.993 367.356 384.085 367.356C391.589 367.356 397.127 369.366 400.701 373.386C404.274 377.317 406.016 383.57 405.927 392.146C405.927 395.451 405.927 398.801 405.927 402.196C405.927 405.501 405.882 408.851 405.793 412.246C405.793 415.551 405.793 418.901 405.793 422.296C405.793 423.725 405.748 425.155 405.659 426.584C405.569 428.013 405.435 429.621 405.257 431.408C406.865 431.319 408.428 431.229 409.947 431.14C411.555 431.051 413.163 430.961 414.771 430.872V436.5H395.609ZM394.403 403.67C391.365 403.759 388.149 404.161 384.755 404.876C381.449 405.501 378.367 406.484 375.509 407.824C372.739 409.164 370.461 410.951 368.675 413.184C366.977 415.328 366.173 417.963 366.263 421.09C366.441 424.395 367.513 426.897 369.479 428.594C371.533 430.202 373.945 431.006 376.715 431.006C380.377 431.006 383.549 430.336 386.229 428.996C388.998 427.567 391.723 425.601 394.403 423.1C394.313 422.117 394.269 421.045 394.269 419.884C394.269 418.723 394.269 417.517 394.269 416.266C394.269 415.819 394.269 414.39 394.269 411.978C394.358 409.566 394.403 406.797 394.403 403.67ZM423.966 436.5V432.48C426.736 432.48 428.656 431.81 429.728 430.47C430.8 429.041 431.426 427.12 431.604 424.708C431.783 422.207 431.872 419.348 431.872 416.132L432.006 385.58C432.006 384.151 432.006 382.721 432.006 381.292C432.096 379.863 432.274 378.389 432.542 376.87C430.934 376.959 429.326 377.049 427.718 377.138C426.2 377.227 424.636 377.317 423.028 377.406V371.778C426.959 371.778 429.907 371.599 431.872 371.242C433.927 370.885 435.446 370.438 436.428 369.902C437.411 369.366 438.215 368.785 438.84 368.16H442.726C442.816 368.785 442.86 369.5 442.86 370.304C442.95 371.108 443.039 372.001 443.128 372.984C443.218 373.967 443.262 375.083 443.262 376.334C445.228 374.637 447.372 373.118 449.694 371.778C452.106 370.438 454.608 369.366 457.198 368.562C459.878 367.758 462.514 367.356 465.104 367.356C472.876 367.356 478.549 369.813 482.122 374.726C485.696 379.55 487.482 387.099 487.482 397.372V422.296C487.482 424.083 487.438 425.691 487.348 427.12C487.348 428.46 487.214 429.889 486.946 431.408C488.376 431.319 489.76 431.274 491.1 431.274C492.53 431.185 493.959 431.095 495.388 431.006V436.5H468.052V432.48C470.822 432.48 472.742 431.81 473.814 430.47C474.886 429.041 475.512 427.12 475.69 424.708C475.869 422.207 475.958 419.348 475.958 416.132V397.372C475.869 389.689 474.574 383.883 472.072 379.952C469.66 376.021 465.819 374.101 460.548 374.19C457.332 374.279 454.161 375.128 451.034 376.736C447.997 378.344 445.451 380.399 443.396 382.9C443.486 383.615 443.53 384.419 443.53 385.312C443.53 386.205 443.53 387.143 443.53 388.126L443.396 422.296C443.396 424.083 443.352 425.691 443.262 427.12C443.262 428.46 443.128 429.889 442.86 431.408C444.29 431.319 445.674 431.274 447.014 431.274C448.444 431.185 449.873 431.095 451.302 431.006V436.5H423.966ZM532.831 438.644C528.364 438.644 524.389 438.019 520.905 436.768C517.421 435.607 514.562 434.267 512.329 432.748L512.865 437.438H507.237L506.433 414.39H510.587C510.766 418.053 511.793 421.358 513.669 424.306C515.545 427.165 517.957 429.398 520.905 431.006C523.853 432.614 527.024 433.418 530.419 433.418C532.742 433.418 535.02 433.061 537.253 432.346C539.486 431.542 541.362 430.381 542.881 428.862C544.4 427.254 545.159 425.244 545.159 422.832C545.159 420.331 544.4 418.276 542.881 416.668C541.452 414.971 539.531 413.497 537.119 412.246C534.707 410.995 532.116 409.834 529.347 408.762C526.667 407.69 523.987 406.573 521.307 405.412C518.627 404.251 516.126 402.866 513.803 401.258C511.57 399.65 509.783 397.685 508.443 395.362C507.103 393.039 506.433 390.181 506.433 386.786C506.433 384.91 506.79 382.855 507.505 380.622C508.22 378.389 509.426 376.289 511.123 374.324C512.82 372.269 515.143 370.617 518.091 369.366C521.039 368.026 524.791 367.356 529.347 367.356C531.759 367.356 534.439 367.758 537.387 368.562C540.335 369.366 543.194 370.885 545.963 373.118L545.695 368.026H551.323V391.476H547.035C546.856 388.349 546.142 385.357 544.891 382.498C543.64 379.55 541.809 377.138 539.397 375.262C536.985 373.297 533.858 372.314 530.017 372.314C525.908 372.314 522.692 373.341 520.369 375.396C518.046 377.451 516.885 379.818 516.885 382.498C516.885 385.267 517.734 387.59 519.431 389.466C521.218 391.253 523.496 392.816 526.265 394.156C529.034 395.496 531.982 396.791 535.109 398.042C538.504 399.471 541.809 401.035 545.025 402.732C548.241 404.429 550.876 406.573 552.931 409.164C554.986 411.665 556.013 414.926 556.013 418.946C556.013 423.413 554.852 427.12 552.529 430.068C550.296 433.016 547.392 435.16 543.819 436.5C540.335 437.929 536.672 438.644 532.831 438.644Z" fill="#3D679F"/>
</svg>
